<svg width="25" height="26" viewBox="0 0 25 26" fill="none" xmlns="http://www.w3.org/2000/svg">
<path d="M10.2846 10.3098H8.02787V12.1133H10.1446C10.5109 12.1133 10.8335 11.9914 10.8335 11.15C10.8335 10.3098 10.2846 10.3098 10.2846 10.3098Z" fill="#0097E6"/>
<path d="M8.02787 15.5184H10.1702C10.4915 15.5115 11.1023 15.4134 11.1023 14.4682C11.1023 13.3473 10.2846 13.3586 10.2846 13.3586H8.02787V15.5184Z" fill="#0097E6"/>
<path d="M14.6993 13.3586H17.2461C17.2461 13.3586 17.2611 12.1133 16.0633 12.1133C14.8656 12.1133 14.6993 13.3586 14.6993 13.3586Z" fill="#0097E6"/>
<path fill-rule="evenodd" clip-rule="evenodd" d="M12.5 25.5C19.4036 25.5 25 19.9036 25 13C25 6.09644 19.4036 0.5 12.5 0.5C5.59644 0.5 0 6.09644 0 13C0 19.9036 5.59644 25.5 12.5 25.5ZM12.4788 11.0256C12.4788 12.4709 11.2961 12.5628 11.2961 12.5628C12.824 12.5628 12.7513 14.4894 12.7483 14.567L12.7482 14.5694C12.7482 17.0356 10.2846 16.9549 10.2846 16.9549H6.25V8.87448H10.2846C11.5111 8.87448 12.4788 9.57838 12.4788 11.0256ZM13.0527 14.0343C13.0527 14.0343 13.0502 10.9293 16.0327 10.9293C19.1715 10.9293 18.7283 14.4375 18.7283 14.4375H14.713C14.713 15.9391 16.0783 15.8441 16.0783 15.8441C17.3661 15.8441 17.3211 14.9745 17.3211 14.9745H18.6851C18.6851 17.2819 16.0327 17.1231 16.0327 17.1231C12.8489 17.1231 13.0527 14.0343 13.0527 14.0343ZM14.3642 9.34896H17.563V10.3454H14.3642V9.34896Z" fill="#0097E6"/>
</svg>
