<svg width="25" height="26" viewBox="0 0 25 26" fill="none" xmlns="http://www.w3.org/2000/svg">
<path d="M12.5005 1C5.87299 1 0.500488 6.3725 0.500488 13C0.500488 19.6275 5.87299 25 12.5005 25C19.128 25 24.5005 19.6275 24.5005 13C24.5005 6.3725 19.128 1 12.5005 1ZM9.56299 17.9738H7.13299V10.1537H9.56299V17.9738ZM8.33299 9.19375C7.56549 9.19375 7.06924 8.65 7.06924 7.9775C7.06924 7.29125 7.58049 6.76375 8.36424 6.76375C9.14799 6.76375 9.62799 7.29125 9.64299 7.9775C9.64299 8.65 9.14799 9.19375 8.33299 9.19375ZM18.438 17.9738H16.008V13.64C16.008 12.6313 15.6555 11.9462 14.7767 11.9462C14.1055 11.9462 13.7067 12.41 13.5305 12.8563C13.4655 13.015 13.4492 13.24 13.4492 13.4638V17.9725H11.018V12.6475C11.018 11.6713 10.9867 10.855 10.9542 10.1525H13.0655L13.1767 11.2387H13.2255C13.5455 10.7287 14.3292 9.97625 15.6405 9.97625C17.2392 9.97625 18.438 11.0475 18.438 13.35V17.9738V17.9738Z" fill="#0097E6"/>
</svg>
