<svg width="25" height="26" viewBox="0 0 25 26" fill="none" xmlns="http://www.w3.org/2000/svg">
<path d="M12.5005 1C5.87299 1 0.500488 6.3725 0.500488 13C0.500488 19.6275 5.87299 25 12.5005 25C19.128 25 24.5005 19.6275 24.5005 13C24.5005 6.3725 19.128 1 12.5005 1ZM17.3817 10.83C17.3867 10.9325 17.388 11.035 17.388 11.135C17.388 14.26 15.0117 17.8613 10.6642 17.8613C9.37961 17.8634 8.1217 17.4944 7.04174 16.7987C7.22549 16.8212 7.41424 16.83 7.60549 16.83C8.71299 16.83 9.73174 16.4538 10.5405 15.8188C10.0476 15.8091 9.57008 15.6459 9.17438 15.3519C8.77868 15.0579 8.48455 14.6478 8.33299 14.1788C8.68693 14.2461 9.05155 14.2319 9.39924 14.1375C8.8643 14.0293 8.38324 13.7395 8.03762 13.3171C7.69201 12.8947 7.50312 12.3658 7.50299 11.82V11.7913C7.82174 11.9675 8.18674 12.075 8.57424 12.0875C8.07274 11.7537 7.71772 11.2408 7.58179 10.6539C7.44587 10.067 7.5393 9.45032 7.84299 8.93C8.43668 9.66 9.17706 10.2572 10.0162 10.6829C10.8553 11.1086 11.7745 11.3533 12.7142 11.4013C12.5948 10.8941 12.6462 10.3618 12.8605 9.88688C13.0748 9.412 13.44 9.02124 13.8993 8.77533C14.3586 8.52942 14.8863 8.44215 15.4004 8.52709C15.9144 8.61203 16.3859 8.86441 16.7417 9.245C17.2707 9.14034 17.778 8.94632 18.2417 8.67125C18.0654 9.21892 17.6963 9.68397 17.203 9.98C17.6715 9.92356 18.1291 9.7976 18.5605 9.60625C18.2436 10.0811 17.8444 10.4955 17.3817 10.83V10.83Z" fill="#0097E6"/>
</svg>
