<svg width="25" height="26" viewBox="0 0 25 26" fill="none" xmlns="http://www.w3.org/2000/svg">
<g clip-path="url(#clip0_50_2404)">
<path d="M12.826 12.9774C12.8673 12.9624 12.9112 12.9511 12.955 12.9386C12.8439 12.6924 12.7274 12.4486 12.6056 12.2074C10.2517 12.9048 7.99798 12.9111 7.59606 12.9048C7.5923 12.9361 7.5923 12.9687 7.5923 13C7.5923 14.1832 8.01801 15.3201 8.7918 16.2128C9.04973 15.7971 10.417 13.7575 12.826 12.9774ZM9.52427 16.8977C10.2053 17.4196 11.0114 17.7535 11.862 17.866C12.7126 17.9785 13.5778 17.8657 14.3711 17.5388C14.1411 16.2902 13.7966 15.0655 13.3419 13.8802C10.6862 14.8193 9.68328 16.5872 9.52427 16.8977V16.8977ZM15.6995 9.27754C15.1208 8.78041 14.4342 8.42505 13.6941 8.23965C12.954 8.05426 12.1809 8.04393 11.4362 8.20951C12.0896 9.09729 12.684 10.0271 13.2154 10.9929C14.8218 10.3756 15.548 9.48538 15.6995 9.27754V9.27754ZM12.1311 11.3272C11.5914 10.3809 11 9.46504 10.3594 8.58388C9.69808 8.90611 9.11724 9.37224 8.65945 9.9481C8.20167 10.524 7.87854 11.195 7.71375 11.9119H7.73504C8.24338 11.9119 10.0501 11.8706 12.1311 11.3272ZM14.3961 13.621C14.9783 15.24 15.2463 16.5847 15.3227 17.0154C16.3897 16.2631 17.1144 15.1178 17.3373 13.8314C16.6889 13.6472 16.018 13.5541 15.3439 13.5547C15.0209 13.5547 14.7016 13.5772 14.3961 13.621V13.621ZM12.5005 0.97998C5.86192 0.97998 0.480469 6.36143 0.480469 13C0.480469 19.6385 5.86192 25.02 12.5005 25.02C19.139 25.02 24.5205 19.6385 24.5205 13C24.5205 6.36143 19.139 0.97998 12.5005 0.97998ZM12.5005 18.881C10.9409 18.8797 9.44555 18.2597 8.34253 17.1572C7.23951 16.0546 6.61892 14.5596 6.61693 13C6.61826 11.44 7.23855 9.94424 8.34164 8.84115C9.44473 7.73806 10.9405 7.11777 12.5005 7.11644C14.0602 7.11843 15.5554 7.73898 16.6581 8.84196C17.7609 9.94494 18.3811 11.4403 18.3828 13C18.3811 14.5594 17.7608 16.0545 16.658 17.1571C15.5551 18.2597 14.0599 18.8797 12.5005 18.881ZM13.6549 11.8406C13.7638 12.0659 13.8652 12.2875 13.9579 12.5054L14.0468 12.7183C14.3936 12.6769 14.7642 12.6569 15.1511 12.6569C15.9079 12.6584 16.6628 12.7305 17.4061 12.8723C17.3775 11.8058 17.0032 10.7776 16.3394 9.94239C16.139 10.2003 15.3152 11.1481 13.6549 11.8406V11.8406Z" fill="#0097E6"/>
</g>
<defs>
<clipPath id="clip0_50_2404">
<rect width="25" height="25" fill="white" transform="translate(0 0.5)"/>
</clipPath>
</defs>
</svg>
