<svg width="25" height="26" viewBox="0 0 25 26" fill="none" xmlns="http://www.w3.org/2000/svg">
<path d="M14.5042 12.7913L11.6967 11.4813C11.4517 11.3675 11.2505 11.495 11.2505 11.7662V14.2338C11.2505 14.505 11.4517 14.6325 11.6967 14.5188L14.503 13.2088C14.7492 13.0938 14.7492 12.9063 14.5042 12.7913ZM12.5005 1C5.87299 1 0.500488 6.3725 0.500488 13C0.500488 19.6275 5.87299 25 12.5005 25C19.128 25 24.5005 19.6275 24.5005 13C24.5005 6.3725 19.128 1 12.5005 1ZM12.5005 17.875C6.35799 17.875 6.25049 17.3213 6.25049 13C6.25049 8.67875 6.35799 8.125 12.5005 8.125C18.643 8.125 18.7505 8.67875 18.7505 13C18.7505 17.3213 18.643 17.875 12.5005 17.875Z" fill="#0097E6"/>
</svg>
